<?xml version="1.0" encoding="UTF-8" standalone="no"?>
<!DOCTYPE svg PUBLIC "-//W3C//DTD SVG 1.1//EN"
 "http://www.w3.org/Graphics/SVG/1.1/DTD/svg11.dtd">
<!-- Generated by graphviz version 2.38.0 (20140413.2041)
 -->
<!-- Title: G Pages: 1 -->
<svg width="280pt" height="260pt"
 viewBox="0.00 0.00 279.83 260.00" xmlns="http://www.w3.org/2000/svg" xmlns:xlink="http://www.w3.org/1999/xlink">
<g id="graph0" class="graph" transform="scale(1 1) rotate(0) translate(4 256)">
<title>G</title>
<polygon fill="white" stroke="none" points="-4,4 -4,-256 275.832,-256 275.832,4 -4,4"/>
<!-- 0 -->
<g id="node1" class="node"><title>0</title>
<ellipse fill="none" stroke="black" cx="186.04" cy="-234" rx="85.5853" ry="18"/>
<text text-anchor="middle" x="186.04" y="-230.3" font-family="Times,serif" font-size="14.00">Create parameter file</text>
</g>
<!-- 1 -->
<g id="node2" class="node"><title>1</title>
<ellipse fill="none" stroke="black" cx="115.04" cy="-162" rx="115.08" ry="18"/>
<text text-anchor="middle" x="115.04" y="-158.3" font-family="Times,serif" font-size="14.00">Checking your parameter file</text>
</g>
<!-- 0&#45;&gt;1 -->
<g id="edge1" class="edge"><title>0&#45;&gt;1</title>
<path fill="none" stroke="black" d="M168.853,-216.055C160.174,-207.498 149.484,-196.959 139.925,-187.535"/>
<polygon fill="black" stroke="black" points="142.14,-184.804 132.562,-180.275 137.226,-189.788 142.14,-184.804"/>
</g>
<!-- 2 -->
<g id="node3" class="node"><title>2</title>
<ellipse fill="none" stroke="black" cx="186.04" cy="-90" rx="64.9885" ry="18"/>
<text text-anchor="middle" x="186.04" y="-86.3" font-family="Times,serif" font-size="14.00">Do simulations</text>
</g>
<!-- 0&#45;&gt;2 -->
<g id="edge2" class="edge"><title>0&#45;&gt;2</title>
<path fill="none" stroke="black" d="M209.685,-216.464C220.844,-207.183 233.014,-194.547 239.04,-180 245.163,-165.218 245.163,-158.782 239.04,-144 234.302,-132.563 225.767,-122.307 216.91,-113.934"/>
<polygon fill="black" stroke="black" points="218.948,-111.065 209.132,-107.078 214.32,-116.316 218.948,-111.065"/>
</g>
<!-- 1&#45;&gt;2 -->
<g id="edge3" class="edge"><title>1&#45;&gt;2</title>
<path fill="none" stroke="black" d="M132.227,-144.055C141.122,-135.285 152.13,-124.432 161.868,-114.831"/>
<polygon fill="black" stroke="black" points="164.347,-117.302 169.011,-107.789 159.433,-112.317 164.347,-117.302"/>
</g>
<!-- 3 -->
<g id="node4" class="node"><title>3</title>
<ellipse fill="none" stroke="black" cx="186.04" cy="-18" rx="65.7887" ry="18"/>
<text text-anchor="middle" x="186.04" y="-14.3" font-family="Times,serif" font-size="14.00">Analyze results</text>
</g>
<!-- 2&#45;&gt;3 -->
<g id="edge4" class="edge"><title>2&#45;&gt;3</title>
<path fill="none" stroke="black" d="M186.04,-71.6966C186.04,-63.9827 186.04,-54.7125 186.04,-46.1124"/>
<polygon fill="black" stroke="black" points="189.54,-46.1043 186.04,-36.1043 182.54,-46.1044 189.54,-46.1043"/>
</g>
</g>
</svg>
