<?xml version="1.0" encoding="UTF-8" standalone="no"?>
<!DOCTYPE svg PUBLIC "-//W3C//DTD SVG 1.1//EN"
 "http://www.w3.org/Graphics/SVG/1.1/DTD/svg11.dtd">
<!-- Generated by graphviz version 2.38.0 (20140413.2041)
 -->
<!-- Title: G Pages: 1 -->
<svg width="268pt" height="404pt"
 viewBox="0.00 0.00 267.98 404.00" xmlns="http://www.w3.org/2000/svg" xmlns:xlink="http://www.w3.org/1999/xlink">
<g id="graph0" class="graph" transform="scale(1 1) rotate(0) translate(4 400)">
<title>G</title>
<polygon fill="white" stroke="none" points="-4,4 -4,-400 263.977,-400 263.977,4 -4,4"/>
<!-- 0 -->
<g id="node1" class="node"><title>0</title>
<ellipse fill="none" stroke="black" cx="129.988" cy="-378" rx="96.6831" ry="18"/>
<text text-anchor="middle" x="129.988" y="-374.3" font-family="Times,serif" font-size="14.00">save_parameters_to_file</text>
</g>
<!-- 1 -->
<g id="node2" class="node"><title>1</title>
<ellipse fill="none" stroke="black" cx="129.988" cy="-306" rx="67.6881" ry="18"/>
<text text-anchor="middle" x="129.988" y="-302.3" font-family="Times,serif" font-size="14.00">add_pbd_output</text>
</g>
<!-- 0&#45;&gt;1 -->
<g id="edge1" class="edge"><title>0&#45;&gt;1</title>
<path fill="none" stroke="black" d="M129.988,-359.697C129.988,-351.983 129.988,-342.712 129.988,-334.112"/>
<polygon fill="black" stroke="black" points="133.489,-334.104 129.988,-324.104 126.489,-334.104 133.489,-334.104"/>
</g>
<!-- 2 -->
<g id="node3" class="node"><title>2</title>
<ellipse fill="none" stroke="black" cx="129.988" cy="-234" rx="129.977" ry="18"/>
<text text-anchor="middle" x="129.988" y="-230.3" font-family="Times,serif" font-size="14.00">add_species_trees_with_outgroup</text>
</g>
<!-- 1&#45;&gt;2 -->
<g id="edge2" class="edge"><title>1&#45;&gt;2</title>
<path fill="none" stroke="black" d="M129.988,-287.697C129.988,-279.983 129.988,-270.712 129.988,-262.112"/>
<polygon fill="black" stroke="black" points="133.489,-262.104 129.988,-252.104 126.489,-262.104 133.489,-262.104"/>
</g>
<!-- 3 -->
<g id="node4" class="node"><title>3</title>
<ellipse fill="none" stroke="black" cx="129.988" cy="-162" rx="66.8882" ry="18"/>
<text text-anchor="middle" x="129.988" y="-158.3" font-family="Times,serif" font-size="14.00">add_alignments</text>
</g>
<!-- 2&#45;&gt;3 -->
<g id="edge3" class="edge"><title>2&#45;&gt;3</title>
<path fill="none" stroke="black" d="M129.988,-215.697C129.988,-207.983 129.988,-198.712 129.988,-190.112"/>
<polygon fill="black" stroke="black" points="133.489,-190.104 129.988,-180.104 126.489,-190.104 133.489,-190.104"/>
</g>
<!-- 4 -->
<g id="node5" class="node"><title>4</title>
<ellipse fill="none" stroke="black" cx="129.988" cy="-90" rx="62.2891" ry="18"/>
<text text-anchor="middle" x="129.988" y="-86.3" font-family="Times,serif" font-size="14.00">add_posteriors</text>
</g>
<!-- 3&#45;&gt;4 -->
<g id="edge4" class="edge"><title>3&#45;&gt;4</title>
<path fill="none" stroke="black" d="M129.988,-143.697C129.988,-135.983 129.988,-126.712 129.988,-118.112"/>
<polygon fill="black" stroke="black" points="133.489,-118.104 129.988,-108.104 126.489,-118.104 133.489,-118.104"/>
</g>
<!-- 5 -->
<g id="node6" class="node"><title>5</title>
<ellipse fill="none" stroke="black" cx="129.988" cy="-18" rx="37.8943" ry="18"/>
<text text-anchor="middle" x="129.988" y="-14.3" font-family="Times,serif" font-size="14.00">analyze</text>
</g>
<!-- 4&#45;&gt;5 -->
<g id="edge5" class="edge"><title>4&#45;&gt;5</title>
<path fill="none" stroke="black" d="M129.988,-71.6966C129.988,-63.9827 129.988,-54.7125 129.988,-46.1124"/>
<polygon fill="black" stroke="black" points="133.489,-46.1043 129.988,-36.1043 126.489,-46.1044 133.489,-46.1043"/>
</g>
</g>
</svg>
